<svg id="wave" style="transform:rotate(0deg); transition: 0.3s" viewBox="0 0 1440 490" version="1.1" xmlns="http://www.w3.org/2000/svg"><defs><linearGradient id="sw-gradient-0" x1="0" x2="0" y1="1" y2="0"><stop stop-color="rgba(0, 37, 85, 1)" offset="0%"></stop><stop stop-color="rgba(255, 255, 255, 1)" offset="100%"></stop></linearGradient></defs><path style="transform:translate(0, 0px); opacity:1" fill="url(#sw-gradient-0)" d="M0,245L60,220.5C120,196,240,147,360,130.7C480,114,600,131,720,163.3C840,196,960,245,1080,277.7C1200,310,1320,327,1440,326.7C1560,327,1680,310,1800,277.7C1920,245,2040,196,2160,179.7C2280,163,2400,180,2520,204.2C2640,229,2760,261,2880,302.2C3000,343,3120,392,3240,416.5C3360,441,3480,441,3600,441C3720,441,3840,441,3960,408.3C4080,376,4200,310,4320,302.2C4440,294,4560,343,4680,359.3C4800,376,4920,359,5040,367.5C5160,376,5280,408,5400,424.7C5520,441,5640,441,5760,392C5880,343,6000,245,6120,245C6240,245,6360,343,6480,383.8C6600,425,6720,408,6840,400.2C6960,392,7080,392,7200,359.3C7320,327,7440,261,7560,236.8C7680,212,7800,229,7920,212.3C8040,196,8160,147,8280,130.7C8400,114,8520,131,8580,138.8L8640,147L8640,490L8580,490C8520,490,8400,490,8280,490C8160,490,8040,490,7920,490C7800,490,7680,490,7560,490C7440,490,7320,490,7200,490C7080,490,6960,490,6840,490C6720,490,6600,490,6480,490C6360,490,6240,490,6120,490C6000,490,5880,490,5760,490C5640,490,5520,490,5400,490C5280,490,5160,490,5040,490C4920,490,4800,490,4680,490C4560,490,4440,490,4320,490C4200,490,4080,490,3960,490C3840,490,3720,490,3600,490C3480,490,3360,490,3240,490C3120,490,3000,490,2880,490C2760,490,2640,490,2520,490C2400,490,2280,490,2160,490C2040,490,1920,490,1800,490C1680,490,1560,490,1440,490C1320,490,1200,490,1080,490C960,490,840,490,720,490C600,490,480,490,360,490C240,490,120,490,60,490L0,490Z"></path><defs><linearGradient id="sw-gradient-1" x1="0" x2="0" y1="1" y2="0"><stop stop-color="rgba(52.149, 255, 250.418, 1)" offset="0%"></stop><stop stop-color="rgba(255, 255, 255, 1)" offset="100%"></stop></linearGradient></defs><path style="transform:translate(0, 50px); opacity:0.9" fill="url(#sw-gradient-1)" d="M0,392L60,351.2C120,310,240,229,360,228.7C480,229,600,310,720,302.2C840,294,960,196,1080,171.5C1200,147,1320,196,1440,228.7C1560,261,1680,278,1800,269.5C1920,261,2040,229,2160,204.2C2280,180,2400,163,2520,196C2640,229,2760,310,2880,318.5C3000,327,3120,261,3240,220.5C3360,180,3480,163,3600,204.2C3720,245,3840,343,3960,334.8C4080,327,4200,212,4320,171.5C4440,131,4560,163,4680,220.5C4800,278,4920,359,5040,343C5160,327,5280,212,5400,187.8C5520,163,5640,229,5760,253.2C5880,278,6000,261,6120,228.7C6240,196,6360,147,6480,130.7C6600,114,6720,131,6840,187.8C6960,245,7080,343,7200,367.5C7320,392,7440,343,7560,277.7C7680,212,7800,131,7920,98C8040,65,8160,82,8280,147C8400,212,8520,327,8580,383.8L8640,441L8640,490L8580,490C8520,490,8400,490,8280,490C8160,490,8040,490,7920,490C7800,490,7680,490,7560,490C7440,490,7320,490,7200,490C7080,490,6960,490,6840,490C6720,490,6600,490,6480,490C6360,490,6240,490,6120,490C6000,490,5880,490,5760,490C5640,490,5520,490,5400,490C5280,490,5160,490,5040,490C4920,490,4800,490,4680,490C4560,490,4440,490,4320,490C4200,490,4080,490,3960,490C3840,490,3720,490,3600,490C3480,490,3360,490,3240,490C3120,490,3000,490,2880,490C2760,490,2640,490,2520,490C2400,490,2280,490,2160,490C2040,490,1920,490,1800,490C1680,490,1560,490,1440,490C1320,490,1200,490,1080,490C960,490,840,490,720,490C600,490,480,490,360,490C240,490,120,490,60,490L0,490Z"></path><defs><linearGradient id="sw-gradient-2" x1="0" x2="0" y1="1" y2="0"><stop stop-color="rgba(87.943, 99.958, 250.328, 1)" offset="0%"></stop><stop stop-color="rgba(255, 255, 255, 1)" offset="100%"></stop></linearGradient></defs><path style="transform:translate(0, 100px); opacity:0.8" fill="url(#sw-gradient-2)" d="M0,196L60,212.3C120,229,240,261,360,285.8C480,310,600,327,720,334.8C840,343,960,343,1080,326.7C1200,310,1320,278,1440,294C1560,310,1680,376,1800,343C1920,310,2040,180,2160,171.5C2280,163,2400,278,2520,343C2640,408,2760,425,2880,432.8C3000,441,3120,441,3240,432.8C3360,425,3480,408,3600,408.3C3720,408,3840,425,3960,359.3C4080,294,4200,147,4320,106.2C4440,65,4560,131,4680,163.3C4800,196,4920,196,5040,228.7C5160,261,5280,327,5400,326.7C5520,327,5640,261,5760,269.5C5880,278,6000,359,6120,359.3C6240,359,6360,278,6480,277.7C6600,278,6720,359,6840,326.7C6960,294,7080,147,7200,114.3C7320,82,7440,163,7560,220.5C7680,278,7800,310,7920,269.5C8040,229,8160,114,8280,73.5C8400,33,8520,65,8580,81.7L8640,98L8640,490L8580,490C8520,490,8400,490,8280,490C8160,490,8040,490,7920,490C7800,490,7680,490,7560,490C7440,490,7320,490,7200,490C7080,490,6960,490,6840,490C6720,490,6600,490,6480,490C6360,490,6240,490,6120,490C6000,490,5880,490,5760,490C5640,490,5520,490,5400,490C5280,490,5160,490,5040,490C4920,490,4800,490,4680,490C4560,490,4440,490,4320,490C4200,490,4080,490,3960,490C3840,490,3720,490,3600,490C3480,490,3360,490,3240,490C3120,490,3000,490,2880,490C2760,490,2640,490,2520,490C2400,490,2280,490,2160,490C2040,490,1920,490,1800,490C1680,490,1560,490,1440,490C1320,490,1200,490,1080,490C960,490,840,490,720,490C600,490,480,490,360,490C240,490,120,490,60,490L0,490Z"></path></svg>